<?xml version="1.0" encoding="UTF-8" standalone="no"?>
<!-- Created with Inkscape (http://www.inkscape.org/) -->

<svg
   xmlns:dc="http://purl.org/dc/elements/1.1/"
   xmlns:cc="http://creativecommons.org/ns#"
   xmlns:rdf="http://www.w3.org/1999/02/22-rdf-syntax-ns#"
   xmlns:svg="http://www.w3.org/2000/svg"
   xmlns="http://www.w3.org/2000/svg"
   xmlns:xlink="http://www.w3.org/1999/xlink"
   xmlns:sodipodi="http://sodipodi.sourceforge.net/DTD/sodipodi-0.dtd"
   xmlns:inkscape="http://www.inkscape.org/namespaces/inkscape"
   width="1052.3622"
   height="744.09448"
   id="svg2"
   version="1.1"
   inkscape:version="0.47 r22583"
   sodipodi:docname="blueprint.svg">
  <defs
     id="defs4">
    <inkscape:perspective
       sodipodi:type="inkscape:persp3d"
       inkscape:vp_x="0 : 526.18109 : 1"
       inkscape:vp_y="0 : 1000 : 0"
       inkscape:vp_z="744.09448 : 526.18109 : 1"
       inkscape:persp3d-origin="372.04724 : 350.78739 : 1"
       id="perspective10" />
    <inkscape:perspective
       id="perspective2884"
       inkscape:persp3d-origin="0.5 : 0.33333333 : 1"
       inkscape:vp_z="1 : 0.5 : 1"
       inkscape:vp_y="0 : 1000 : 0"
       inkscape:vp_x="0 : 0.5 : 1"
       sodipodi:type="inkscape:persp3d" />
  </defs>
  <sodipodi:namedview
     id="base"
     pagecolor="#ffffff"
     bordercolor="#666666"
     borderopacity="1.0"
     inkscape:pageopacity="0.0"
     inkscape:pageshadow="2"
     inkscape:zoom="3.959798"
     inkscape:cx="257.1813"
     inkscape:cy="557.11046"
     inkscape:document-units="px"
     inkscape:current-layer="layer2"
     showgrid="false"
     inkscape:snap-global="true"
     inkscape:snap-page="true"
     inkscape:window-width="1466"
     inkscape:window-height="976"
     inkscape:window-x="0"
     inkscape:window-y="18"
     inkscape:window-maximized="0" />
  <metadata
     id="metadata7">
    <rdf:RDF>
      <cc:Work
         rdf:about="">
        <dc:format>image/svg+xml</dc:format>
        <dc:type
           rdf:resource="http://purl.org/dc/dcmitype/StillImage" />
        <dc:title></dc:title>
      </cc:Work>
    </rdf:RDF>
  </metadata>
  <g
     inkscape:label="Satellite"
     inkscape:groupmode="layer"
     id="layer1"
     transform="translate(0,-308.2677)"
     sodipodi:insensitive="true">
    <image
       y="308.2677"
       x="0"
       id="image2886"
       height="744.09448"
       width="1052.3622"
       xlink:href="file:///home/as2122/stuff/jcmb/stuff/jcmb_satellite.jpg" />
  </g>
  <g
     inkscape:groupmode="layer"
     id="layer2"
     inkscape:label="Ground Floor">
    <path
       style="opacity:0.68354426000000001;fill:#ff4800;fill-opacity:0.47826087;stroke:#a70000;stroke-width:3;stroke-linecap:butt;stroke-linejoin:miter;stroke-miterlimit:4;stroke-opacity:1;stroke-dasharray:none"
       d="M 188.40625 20.8125 L 194.46875 93.5625 L 179.8125 95.5625 L 177.78125 70.3125 L 156.0625 71.84375 L 161.625 124.375 L 174.75 122.84375 L 178.28125 153.15625 L 203.03125 149.125 L 229.3125 155.1875 L 237.375 135.46875 L 254.5625 142.5625 L 248.5 159.71875 L 272.25 178.90625 L 285.375 166.78125 L 298.5 186 L 277.78125 198.09375 L 286.875 225.375 L 313.65625 223.375 L 314.15625 286.625 L 314.65625 325.53125 L 100 325.53125 L 100 506.25 L 179.65625 506.25 L 179.65625 708.375 L 216.4375 708.375 L 216.4375 718.75 L 285.34375 718.75 L 285.34375 506.59375 L 423.9375 506.59375 L 423.9375 726.59375 L 495 726.59375 L 495 734.4375 L 679.28125 734.4375 L 679.28125 727.65625 L 753.9375 727.65625 L 753.9375 695.875 L 988.21875 695.875 L 988.21875 286.625 L 386.875 286.625 L 386.375 248.625 L 431.34375 247.09375 L 431.84375 226.40625 L 402.03125 124.375 L 387.40625 103.15625 L 378.8125 108.71875 L 309.625 37.5 L 303.03125 50.125 L 283.84375 41.03125 L 188.40625 20.8125 z M 500.03125 507.21875 L 671.75 507.21875 L 671.75 644.09375 L 500.03125 644.09375 L 500.03125 507.21875 z "
       id="path2912" />
    <path
       style="fill:#82100f;stroke:#000000;stroke-width:3;stroke-linecap:butt;stroke-linejoin:miter;stroke-opacity:1;stroke-miterlimit:4;stroke-dasharray:none;fill-opacity:1"
       d="m 385.3732,248.36212 -71.21576,0"
       id="path3689" />
  </g>
</svg>
